<?xml version="1.0" standalone="yes"?>
<svg width="1024" height="1024">
<path style="fill:#003876; stroke:none;" d="M0 0L0 1024L1024 1024L1024 0L0 0z"/>
<path style="fill:#677c9f; stroke:none;" d="M231 311L231 312L256 312L231 311z"/>
<path style="fill:#a3afc2; stroke:none;" d="M218 312L218 313L223 313L218 312z"/>
<path style="fill:#d5d9e2; stroke:none;" d="M223 312L223 313L227 313L223 312z"/>
<path style="fill:#ffffff; stroke:none;" d="M357 499C347.01 500.816 351.78 507.043 348.312 514C345.498 519.644 340.132 523.313 335 526.655C308.726 543.764 269.513 555.069 238 552.911C206.945 550.784 174.607 540.782 153.171 517C122.353 482.811 121.325 429.562 152.174 395C170.423 374.554 197.092 362.786 224 359.289C257 355.001 300.347 362.708 327.999 382.21C336.545 388.237 335.865 398.741 344 404C354.208 388.869 364.176 373.503 373.808 358C376.958 352.93 383.908 346.018 384.688 340.004C385.258 335.603 380.354 333.301 377 332C374.991 334.604 372.716 338.142 368.999 338.048C362.69 337.888 354.978 332.42 349 330.344C335.256 325.572 321.137 322.234 307 318.884C254.401 306.421 191.412 308.064 143 334.309C118.532 347.573 98.7744 366.771 85.1535 391C49.5828 454.273 75.0674 540.126 137 575.573C178.175 599.138 227.765 603.151 274 598.166C305.591 594.759 335.893 581.301 364 567.247C369.3 564.597 375.081 560.772 381 559.779C384.271 559.229 389.191 560.412 390.172 555.941C391.235 551.098 384.583 543.858 382.192 540C373.784 526.432 364.499 513.087 357 499z"/>
<path style="fill:#d5d9e2; stroke:none;" d="M261 312L261 313L268 313L261 312z"/>
<path style="fill:#677c9f; stroke:none;" d="M268 312L268 313L271 313L268 312z"/>
<path style="fill:#bdc5d3; stroke:none;" d="M210 313L210 314L214 314L210 313z"/>
<path style="fill:#677c9f; stroke:none;" d="M276 313L276 314L280 314L276 313z"/>
<path style="fill:#788aa8; stroke:none;" d="M203.667 314.333L204.333 314.667L203.667 314.333z"/>
<path style="fill:#677c9f; stroke:none;" d="M285.667 314.333L286.333 314.667L285.667 314.333z"/>
<path style="fill:#a3afc2; stroke:none;" d="M198 315L198 316L201 316L198 315M289 315L289 316L292 316L289 315z"/>
<path style="fill:#677c9f; stroke:none;" d="M475 315L475 325L476 325L475 315z"/>
<path style="fill:#ffffff; stroke:none;" d="M476 315L476 325C497.18 325.498 490 359.253 490 374L490 534C490 549.229 497.806 588.487 476 589L476 599L565 599C564.99 586.271 551.362 587.139 551.015 573C549.854 525.731 551 478.285 551 431C551 400.573 548.949 369.345 551.089 339C552.009 325.961 564.99 327.494 565 315L476 315z"/>
<path style="fill:#d5d9e2; stroke:none;" d="M565 315L564 325C566.789 322.563 566.361 318.244 565 315z"/>
<path style="fill:#ffffff; stroke:none;" d="M652 315L652 325C679.463 325.018 672 354.087 672 374L672 534L672 568C672 572.636 673.045 578.863 670.258 582.892C666.26 588.672 658.289 588.996 652 589L652 599L751 599L751 589C745.204 588.983 738.49 588.451 735.14 582.895C731.508 576.873 733 567.714 733 561L733 513C733 507.057 729.917 487.632 735.318 484.028C738.852 481.669 745.935 483 750 483L788 483C832.476 483 888.958 491.012 927 462.486C970.374 429.962 959.865 349.241 912 327.309C880.344 312.804 843.922 315 810 315L652 315z"/>
<path style="fill:#d5d9e2; stroke:none;" d="M854 315L854 316L858 316L854 315z"/>
<path style="fill:#a3afc2; stroke:none;" d="M858 315L858 316L865 316L858 315M193.667 316.333L194.333 316.667L193.667 316.333z"/>
<path style="fill:#b0bacb; stroke:none;" d="M294 316L294 317L297 317L294 316z"/>
<path style="fill:#8797b1; stroke:none;" d="M870 316L870 317L873 317L870 316z"/>
<path style="fill:#bdc5d3; stroke:none;" d="M189.667 317.333L190.333 317.667L189.667 317.333z"/>
<path style="fill:#788aa8; stroke:none;" d="M300.667 317.333L301.333 317.667L300.667 317.333z"/>
<path style="fill:#546e95; stroke:none;" d="M878.667 317.333L879.333 317.667L878.667 317.333z"/>
<path style="fill:#bdc5d3; stroke:none;" d="M185.667 318.333L186.333 318.667L185.667 318.333z"/>
<path style="fill:#677c9f; stroke:none;" d="M305.667 318.333L306.333 318.667L305.667 318.333z"/>
<path style="fill:#bdc5d3; stroke:none;" d="M881 318L881 319L885 319L881 318M181.667 319.333L182.333 319.667L181.667 319.333z"/>
<path style="fill:#8797b1; stroke:none;" d="M309 319L309 320L312 320L309 319z"/>
<path style="fill:#b0bacb; stroke:none;" d="M886 319L886 320L889 320L886 319z"/>
<path style="fill:#96a3ba; stroke:none;" d="M313 320L313 321L316 321L313 320z"/>
<path style="fill:#788aa8; stroke:none;" d="M891.667 320.333L892.333 320.667L891.667 320.333z"/>
<path style="fill:#bdc5d3; stroke:none;" d="M174.667 321.333L175.333 321.667L174.667 321.333z"/>
<path style="fill:#677c9f; stroke:none;" d="M318.667 321.333L319.333 321.667L318.667 321.333z"/>
<path style="fill:#546e95; stroke:none;" d="M895.667 321.333L896.333 321.667L895.667 321.333z"/>
<path style="fill:#677c9f; stroke:none;" d="M322.667 322.333L323.333 322.667L322.667 322.333M898.667 322.333L899.333 322.667L898.667 322.333z"/>
<path style="fill:#96a3ba; stroke:none;" d="M325 323L325 324L328 324L325 323z"/>
<path style="fill:#bdc5d3; stroke:none;" d="M165.667 324.333L166.333 324.667L165.667 324.333z"/>
<path style="fill:#788aa8; stroke:none;" d="M480 325L480 326L483 326L480 325z"/>
<path style="fill:#96a3ba; stroke:none;" d="M558 325L558 326L561 326L558 325z"/>
<path style="fill:#677c9f; stroke:none;" d="M658.667 325.333L659.333 325.667L658.667 325.333z"/>
<path style="fill:#bdc5d3; stroke:none;" d="M660.667 325.333L661.333 325.667L660.667 325.333z"/>
<path style="fill:#788aa8; stroke:none;" d="M907 325L908 326L907 325z"/>
<path style="fill:#677c9f; stroke:none;" d="M336.667 326.333L337.333 326.667L336.667 326.333z"/>
<path style="fill:#788aa8; stroke:none;" d="M340 327L341 328L340 327z"/>
<path style="fill:#8797b1; stroke:none;" d="M486 327L487 328L486 327M346 329L347 330L346 329z"/>
<path style="fill:#788aa8; stroke:none;" d="M349 330L350 331L349 330M489 331L489 334L490 334L489 331z"/>
<path style="fill:#677c9f; stroke:none;" d="M671 332L671 335L672 335L671 332z"/>
<path style="fill:#788aa8; stroke:none;" d="M921 332L922 333L921 332z"/>
<path style="fill:#8797b1; stroke:none;" d="M380 333L381 334L380 333z"/>
<path style="fill:#96a3ba; stroke:none;" d="M924 334L925 335L924 334z"/>
<path style="fill:#a3afc2; stroke:none;" d="M551 335L551 579L552 579L552 407L552 358L551 335z"/>
<path style="fill:#788aa8; stroke:none;" d="M927 336L928 337L927 336z"/>
<path style="fill:#8797b1; stroke:none;" d="M385 337L386 338L385 337z"/>
<path style="fill:#a3afc2; stroke:none;" d="M368 338L368 339L372 339L368 338z"/>
<path style="fill:#96a3ba; stroke:none;" d="M385 339L386 340L385 339z"/>
<path style="fill:#788aa8; stroke:none;" d="M131 341L132 342L131 341M128 343L129 344L128 343z"/>
<path style="fill:#96a3ba; stroke:none;" d="M120 349L121 350L120 349z"/>
<path style="fill:#788aa8; stroke:none;" d="M378 350L379 351L378 350M941 351L942 352L941 351z"/>
<path style="fill:#8797b1; stroke:none;" d="M115 353L116 354L115 353M376 353L377 354L376 353z"/>
<path style="fill:#96a3ba; stroke:none;" d="M114 354L115 355L114 354M374 356L375 357L374 356z"/>
<path style="fill:#a3afc2; stroke:none;" d="M234 358L234 359L250 359L234 358z"/>
<path style="fill:#d5d9e2; stroke:none;" d="M250 358L250 359L254 359L250 358z"/>
<path style="fill:#bdc5d3; stroke:none;" d="M222 359L222 360L225 360L222 359z"/>
<path style="fill:#677c9f; stroke:none;" d="M225 359L225 360L228 360L225 359z"/>
<path style="fill:#a3afc2; stroke:none;" d="M256 359L256 360L260 360L256 359z"/>
<path style="fill:#8797b1; stroke:none;" d="M217 360L217 361L220 361L217 360M264 360L264 361L267 361L264 360z"/>
<path style="fill:#bdc5d3; stroke:none;" d="M946.333 360.667L946.667 361.333L946.333 360.667z"/>
<path style="fill:#a3afc2; stroke:none;" d="M211 361L211 362L214 362L211 361M270.667 361.333L271.333 361.667L270.667 361.333z"/>
<path style="fill:#8797b1; stroke:none;" d="M207.667 362.333L208.333 362.667L207.667 362.333z"/>
<path style="fill:#a3afc2; stroke:none;" d="M275.667 362.333L276.333 362.667L275.667 362.333z"/>
<path style="fill:#96a3ba; stroke:none;" d="M203.667 363.333L204.333 363.667L203.667 363.333M279.667 363.333L280.333 363.667L279.667 363.333z"/>
<path style="fill:#677c9f; stroke:none;" d="M200.667 364.333L201.333 364.667L200.667 364.333z"/>
<path style="fill:#96a3ba; stroke:none;" d="M283.667 364.333L284.333 364.667L283.667 364.333z"/>
<path style="fill:#d5d9e2; stroke:none;" d="M734 364L734 365L848 365L813 364L734 364z"/>
<path style="fill:#96a3ba; stroke:none;" d="M287.667 365.333L288.333 365.667L287.667 365.333z"/>
<path style="fill:#a3afc2; stroke:none;" d="M733 365L733 434L734 434L734 387L733 365z"/>
<path style="fill:#003876; stroke:none;" d="M734 365L734 433L842 433C856.161 433 875.709 433.427 885.443 420.96C899.994 402.323 889.666 373.485 868 367.64C851.959 363.313 834.454 365 818 365L734 365z"/>
<path style="fill:#a3afc2; stroke:none;" d="M855 365L855 366L859 366L855 365z"/>
<path style="fill:#8797b1; stroke:none;" d="M102 366L103 367L102 366z"/>
<path style="fill:#bdc5d3; stroke:none;" d="M291.667 366.333L292.333 366.667L291.667 366.333z"/>
<path style="fill:#a3afc2; stroke:none;" d="M863.667 366.333L864.333 366.667L863.667 366.333z"/>
<path style="fill:#8797b1; stroke:none;" d="M101 367L102 368L101 367z"/>
<path style="fill:#788aa8; stroke:none;" d="M192 367L193 368L192 367z"/>
<path style="fill:#96a3ba; stroke:none;" d="M294.667 367.333L295.333 367.667L294.667 367.333z"/>
<path style="fill:#788aa8; stroke:none;" d="M367 367L368 368L367 367z"/>
<path style="fill:#b0bacb; stroke:none;" d="M867.667 367.333L868.333 367.667L867.667 367.333z"/>
<path style="fill:#96a3ba; stroke:none;" d="M189 368L190 369L189 368z"/>
<path style="fill:#788aa8; stroke:none;" d="M187 369L188 370L187 369z"/>
<path style="fill:#96a3ba; stroke:none;" d="M365 370L366 371L365 370z"/>
<path style="fill:#8797b1; stroke:none;" d="M97 372L98 373L97 372z"/>
<path style="fill:#b0bacb; stroke:none;" d="M950.333 372.667L950.667 373.333L950.333 372.667z"/>
<path style="fill:#8797b1; stroke:none;" d="M882 374L883 375L882 374M175 375L176 376L175 375z"/>
<path style="fill:#788aa8; stroke:none;" d="M884 376L885 377L884 376z"/>
<path style="fill:#a3afc2; stroke:none;" d="M951 376L951 379L952 379L951 376z"/>
<path style="fill:#96a3ba; stroke:none;" d="M885 377L886 378L885 377z"/>
<path style="fill:#8797b1; stroke:none;" d="M322 378L323 379L322 378z"/>
<path style="fill:#788aa8; stroke:none;" d="M166 381L167 382L166 381z"/>
<path style="fill:#96a3ba; stroke:none;" d="M327 381L328 382L327 381z"/>
<path style="fill:#788aa8; stroke:none;" d="M358 381L359 382L358 381z"/>
<path style="fill:#a3afc2; stroke:none;" d="M952 381L952 385L953 385L952 381z"/>
<path style="fill:#96a3ba; stroke:none;" d="M888 382L889 383L888 382M162 384L163 385L162 384M331 384L332 385L331 384M356 384L357 385L356 384z"/>
<path style="fill:#788aa8; stroke:none;" d="M88 385L89 386L88 385M161 385L162 386L161 385z"/>
<path style="fill:#8797b1; stroke:none;" d="M332 385L333 386L332 385z"/>
<path style="fill:#788aa8; stroke:none;" d="M889 385L890 386L889 385z"/>
<path style="fill:#8797b1; stroke:none;" d="M333 386L334 387L333 386z"/>
<path style="fill:#96a3ba; stroke:none;" d="M334 387L335 388L334 387z"/>
<path style="fill:#a3afc2; stroke:none;" d="M890 387L890 390L891 390L890 387z"/>
<path style="fill:#677c9f; stroke:none;" d="M953 391L953 408L954 408L953 391z"/>
<path style="fill:#788aa8; stroke:none;" d="M84 392L85 393L84 392z"/>
<path style="fill:#8797b1; stroke:none;" d="M337.333 393.667L337.667 394.333L337.333 393.667z"/>
<path style="fill:#a3afc2; stroke:none;" d="M891 394L891 404L892 404L891 394z"/>
<path style="fill:#788aa8; stroke:none;" d="M349 395L350 396L349 395z"/>
<path style="fill:#8797b1; stroke:none;" d="M150 396L151 397L150 396M347 398L348 399L347 398z"/>
<path style="fill:#96a3ba; stroke:none;" d="M340 401L341 402L340 401M345 401L346 402L345 401z"/>
<path style="fill:#bdc5d3; stroke:none;" d="M78.3333 405.667L78.6667 406.333L78.3333 405.667z"/>
<path style="fill:#8797b1; stroke:none;" d="M890 408L890 411L891 411L890 408M141 409L142 410L141 409z"/>
<path style="fill:#677c9f; stroke:none;" d="M952 413L952 417L953 417L952 413z"/>
<path style="fill:#bdc5d3; stroke:none;" d="M75.3333 414.667L75.6667 415.333L75.3333 414.667M888.333 415.667L888.667 416.333L888.333 415.667z"/>
<path style="fill:#96a3ba; stroke:none;" d="M74.3333 417.667L74.6667 418.333L74.3333 417.667z"/>
<path style="fill:#8797b1; stroke:none;" d="M136 419L137 420L136 419z"/>
<path style="fill:#788aa8; stroke:none;" d="M886 419L887 420L886 419z"/>
<path style="fill:#8797b1; stroke:none;" d="M951.333 420.667L951.667 421.333L951.333 420.667z"/>
<path style="fill:#96a3ba; stroke:none;" d="M73.3333 421.667L73.6667 422.333L73.3333 421.667M950 424L950 427L951 427L950 424z"/>
<path style="fill:#788aa8; stroke:none;" d="M880 425L881 426L880 425z"/>
<path style="fill:#a3afc2; stroke:none;" d="M72.3333 426.667L72.6667 427.333L72.3333 426.667z"/>
<path style="fill:#546e95; stroke:none;" d="M133.333 427.667L133.667 428.333L133.333 427.667z"/>
<path style="fill:#bdc5d3; stroke:none;" d="M874.667 428.333L875.333 428.667L874.667 428.333z"/>
<path style="fill:#96a3ba; stroke:none;" d="M132 430L132 433L133 433L132 430z"/>
<path style="fill:#788aa8; stroke:none;" d="M71.3333 431.667L71.6667 432.333L71.3333 431.667z"/>
<path style="fill:#a3afc2; stroke:none;" d="M865.667 431.333L866.333 431.667L865.667 431.333z"/>
<path style="fill:#677c9f; stroke:none;" d="M859.667 432.333L860.333 432.667L859.667 432.333z"/>
<path style="fill:#bdc5d3; stroke:none;" d="M861.667 432.333L862.333 432.667L861.667 432.333M71 433L71 436L72 436L71 433z"/>
<path style="fill:#677c9f; stroke:none;" d="M734 433L734 434L849 434L814 433L734 433z"/>
<path style="fill:#a3afc2; stroke:none;" d="M849 433L849 434L855 434L849 433z"/>
<path style="fill:#788aa8; stroke:none;" d="M131.333 435.667L131.667 436.333L131.333 435.667z"/>
<path style="fill:#96a3ba; stroke:none;" d="M946 437L947 438L946 437z"/>
<path style="fill:#a3afc2; stroke:none;" d="M70 438L70 444L71 444L70 438z"/>
<path style="fill:#96a3ba; stroke:none;" d="M130 439L130 445L131 445L130 439z"/>
<path style="fill:#d5d9e2; stroke:none;" d="M129 448L129 463L130 463L129 448z"/>
<path style="fill:#788aa8; stroke:none;" d="M940 448L941 449L940 448z"/>
<path style="fill:#8797b1; stroke:none;" d="M936 453L937 454L936 453z"/>
<path style="fill:#96a3ba; stroke:none;" d="M931 458L932 459L931 458z"/>
<path style="fill:#8797b1; stroke:none;" d="M930 459L931 460L930 459z"/>
<path style="fill:#a3afc2; stroke:none;" d="M130 466L130 470L131 470L130 466z"/>
<path style="fill:#96a3ba; stroke:none;" d="M920 466L921 467L920 466z"/>
<path style="fill:#677c9f; stroke:none;" d="M70 470L70 476L71 476L70 470z"/>
<path style="fill:#8797b1; stroke:none;" d="M131.333 473.667L131.667 474.333L131.333 473.667z"/>
<path style="fill:#677c9f; stroke:none;" d="M893.667 477.333L894.333 477.667L893.667 477.333z"/>
<path style="fill:#a3afc2; stroke:none;" d="M132.333 478.667L132.667 479.333L132.333 478.667z"/>
<path style="fill:#788aa8; stroke:none;" d="M889.667 478.333L890.333 478.667L889.667 478.333z"/>
<path style="fill:#677c9f; stroke:none;" d="M885.667 479.333L886.333 479.667L885.667 479.333z"/>
<path style="fill:#8797b1; stroke:none;" d="M71 480L71 483L72 483L71 480z"/>
<path style="fill:#b0bacb; stroke:none;" d="M872 481L872 482L875 482L872 481z"/>
<path style="fill:#546e95; stroke:none;" d="M875.667 481.333L876.333 481.667L875.667 481.333z"/>
<path style="fill:#b0bacb; stroke:none;" d="M133.333 482.667L133.667 483.333L133.333 482.667z"/>
<path style="fill:#677c9f; stroke:none;" d="M865 482L865 483L870 483L865 482z"/>
<path style="fill:#a3afc2; stroke:none;" d="M734 483L734 484L854 484L818 483L734 483z"/>
<path style="fill:#677c9f; stroke:none;" d="M854 483L854 484L858 484L854 483z"/>
<path style="fill:#a3afc2; stroke:none;" d="M733 484L733 579L734 579L734 513L733 484z"/>
<path style="fill:#788aa8; stroke:none;" d="M72.3333 486.667L72.6667 487.333L72.3333 486.667z"/>
<path style="fill:#bdc5d3; stroke:none;" d="M135.333 488.667L135.667 489.333L135.333 488.667z"/>
<path style="fill:#a3afc2; stroke:none;" d="M73 490L73 493L74 493L73 490z"/>
<path style="fill:#677c9f; stroke:none;" d="M74.3333 495.667L74.6667 496.333L74.3333 495.667z"/>
<path style="fill:#96a3ba; stroke:none;" d="M355 498L356 499L355 498z"/>
<path style="fill:#8797b1; stroke:none;" d="M353 499L354 500L353 499z"/>
<path style="fill:#a3afc2; stroke:none;" d="M348.333 502.667L348.667 503.333L348.333 502.667z"/>
<path style="fill:#788aa8; stroke:none;" d="M143 504L144 505L143 504M360 505L361 506L360 505M145 507L146 508L145 507z"/>
<path style="fill:#8797b1; stroke:none;" d="M78 508L79 509L78 508z"/>
<path style="fill:#96a3ba; stroke:none;" d="M147 510L148 511L147 510z"/>
<path style="fill:#788aa8; stroke:none;" d="M365 513L366 514L365 513z"/>
<path style="fill:#8797b1; stroke:none;" d="M81 515L82 516L81 515z"/>
<path style="fill:#96a3ba; stroke:none;" d="M151 515L152 516L151 515z"/>
<path style="fill:#8797b1; stroke:none;" d="M152 516L153 517L152 516M82 517L83 518L82 517M83 519L84 520L83 519M84 521L85 522L84 521M341 522L342 523L341 522M159 523L160 524L159 523M160 524L161 525L160 524M88 528L89 529L88 528z"/>
<path style="fill:#788aa8; stroke:none;" d="M165 528L166 529L165 528z"/>
<path style="fill:#96a3ba; stroke:none;" d="M169 531L170 532L169 531M172 533L173 534L172 533z"/>
<path style="fill:#8797b1; stroke:none;" d="M378 534L379 535L378 534M94 537L95 538L94 537M179 537L180 538L179 537M181 538L182 539L181 538M183 539L184 540L183 539M97 541L98 542L97 541z"/>
<path style="fill:#bdc5d3; stroke:none;" d="M303.667 541.333L304.333 541.667L303.667 541.333z"/>
<path style="fill:#788aa8; stroke:none;" d="M190 542L191 543L190 542z"/>
<path style="fill:#bdc5d3; stroke:none;" d="M300.667 542.333L301.333 542.667L300.667 542.333z"/>
<path style="fill:#8797b1; stroke:none;" d="M383 542L384 543L383 542z"/>
<path style="fill:#b0bacb; stroke:none;" d="M293.667 544.333L294.333 544.667L293.667 544.333z"/>
<path style="fill:#96a3ba; stroke:none;" d="M289.667 545.333L290.333 545.667L289.667 545.333z"/>
<path style="fill:#546e95; stroke:none;" d="M201.667 546.333L202.333 546.667L201.667 546.333z"/>
<path style="fill:#96a3ba; stroke:none;" d="M285 546L285 547L288 547L285 546z"/>
<path style="fill:#8797b1; stroke:none;" d="M102 547L103 548L102 547M204.667 547.333L205.333 547.667L204.667 547.333z"/>
<path style="fill:#96a3ba; stroke:none;" d="M281.667 547.333L282.333 547.667L281.667 547.333z"/>
<path style="fill:#8797b1; stroke:none;" d="M103 548L104 549L103 548M208 548L208 549L211 549L208 548M276.667 548.333L277.333 548.667L276.667 548.333z"/>
<path style="fill:#96a3ba; stroke:none;" d="M104 549L105 550L104 549z"/>
<path style="fill:#788aa8; stroke:none;" d="M213.667 549.333L214.333 549.667L213.667 549.333z"/>
<path style="fill:#96a3ba; stroke:none;" d="M271 549L271 550L274 550L271 549z"/>
<path style="fill:#bdc5d3; stroke:none;" d="M217 550L217 551L220 551L217 550z"/>
<path style="fill:#677c9f; stroke:none;" d="M264.667 550.333L265.333 550.667L264.667 550.333z"/>
<path style="fill:#788aa8; stroke:none;" d="M388 550L389 551L388 550z"/>
<path style="fill:#96a3ba; stroke:none;" d="M224 551L224 552L231 552L224 551z"/>
<path style="fill:#a3afc2; stroke:none;" d="M255 551L255 552L260 552L255 551z"/>
<path style="fill:#d5d9e2; stroke:none;" d="M234 552L234 553L251 553L234 552z"/>
<path style="fill:#96a3ba; stroke:none;" d="M391 555L392 556L391 555z"/>
<path style="fill:#8797b1; stroke:none;" d="M111 556L112 557L111 556M112 557L113 558L112 557z"/>
<path style="fill:#788aa8; stroke:none;" d="M113 558L114 559L113 558z"/>
<path style="fill:#d5d9e2; stroke:none;" d="M380 559L380 560L384 560L380 559z"/>
<path style="fill:#677c9f; stroke:none;" d="M385.667 560.333L386.333 560.667L385.667 560.333z"/>
<path style="fill:#8797b1; stroke:none;" d="M375 561L376 562L375 561z"/>
<path style="fill:#788aa8; stroke:none;" d="M119 563L120 564L119 563M123 566L124 567L123 566z"/>
<path style="fill:#8797b1; stroke:none;" d="M363 567L364 568L363 567M361 568L362 569L361 568M359 569L360 570L359 569M357 570L358 571L357 570M355 571L356 572L355 571M353 572L354 573L353 572z"/>
<path style="fill:#788aa8; stroke:none;" d="M135 574L136 575L135 574z"/>
<path style="fill:#8797b1; stroke:none;" d="M342 577L343 578L342 577z"/>
<path style="fill:#788aa8; stroke:none;" d="M340 578L341 579L340 578z"/>
<path style="fill:#677c9f; stroke:none;" d="M489 579L489 582L490 582L489 579M671 579L671 582L672 582L671 579z"/>
<path style="fill:#8797b1; stroke:none;" d="M333 581L334 582L333 581z"/>
<path style="fill:#bdc5d3; stroke:none;" d="M150.667 582.333L151.333 582.667L150.667 582.333z"/>
<path style="fill:#8797b1; stroke:none;" d="M552 583L553 584L552 583z"/>
<path style="fill:#bdc5d3; stroke:none;" d="M157.667 585.333L158.333 585.667L157.667 585.333z"/>
<path style="fill:#788aa8; stroke:none;" d="M323 585L324 586L323 585z"/>
<path style="fill:#8797b1; stroke:none;" d="M486 586L487 587L486 586z"/>
<path style="fill:#bdc5d3; stroke:none;" d="M165.667 588.333L166.333 588.667L165.667 588.333z"/>
<path style="fill:#788aa8; stroke:none;" d="M480 588L480 589L483 589L480 588z"/>
<path style="fill:#96a3ba; stroke:none;" d="M558 588L558 589L561 589L558 588z"/>
<path style="fill:#677c9f; stroke:none;" d="M658.667 588.333L659.333 588.667L658.667 588.333z"/>
<path style="fill:#bdc5d3; stroke:none;" d="M660.667 588.333L661.333 588.667L660.667 588.333z"/>
<path style="fill:#96a3ba; stroke:none;" d="M742.667 588.333L743.333 588.667L742.667 588.333z"/>
<path style="fill:#bdc5d3; stroke:none;" d="M168.667 589.333L169.333 589.667L168.667 589.333z"/>
<path style="fill:#677c9f; stroke:none;" d="M475 589L475 599L476 599L475 589z"/>
<path style="fill:#d5d9e2; stroke:none;" d="M564 589L565 599L566 599L564 589z"/>
<path style="fill:#b0bacb; stroke:none;" d="M171.667 590.333L172.333 590.667L171.667 590.333z"/>
<path style="fill:#8797b1; stroke:none;" d="M307.667 590.333L308.333 590.667L307.667 590.333z"/>
<path style="fill:#677c9f; stroke:none;" d="M304.667 591.333L305.333 591.667L304.667 591.333z"/>
<path style="fill:#b0bacb; stroke:none;" d="M178.667 592.333L179.333 592.667L178.667 592.333z"/>
<path style="fill:#8797b1; stroke:none;" d="M300.667 592.333L301.333 592.667L300.667 592.333z"/>
<path style="fill:#b0bacb; stroke:none;" d="M182.667 593.333L183.333 593.667L182.667 593.333z"/>
<path style="fill:#546e95; stroke:none;" d="M297.667 593.333L298.333 593.667L297.667 593.333z"/>
<path style="fill:#a3afc2; stroke:none;" d="M186.667 594.333L187.333 594.667L186.667 594.333z"/>
<path style="fill:#677c9f; stroke:none;" d="M293.667 594.333L294.333 594.667L293.667 594.333z"/>
<path style="fill:#96a3ba; stroke:none;" d="M190.667 595.333L191.333 595.667L190.667 595.333z"/>
<path style="fill:#a3afc2; stroke:none;" d="M288 595L288 596L291 596L288 595z"/>
<path style="fill:#96a3ba; stroke:none;" d="M195 596L195 597L198 597L195 596z"/>
<path style="fill:#b0bacb; stroke:none;" d="M283.667 596.333L284.333 596.667L283.667 596.333z"/>
<path style="fill:#677c9f; stroke:none;" d="M200.667 597.333L201.333 597.667L200.667 597.333z"/>
<path style="fill:#bdc5d3; stroke:none;" d="M202 597L202 598L205 598L202 597z"/>
<path style="fill:#b0bacb; stroke:none;" d="M207 598L207 599L211 599L207 598z"/>
<path style="fill:#bdc5d3; stroke:none;" d="M271 598L271 599L274 599L271 598z"/>
<path style="fill:#546e95; stroke:none;" d="M274.667 598.333L275.333 598.667L274.667 598.333z"/>
<path style="fill:#a3afc2; stroke:none;" d="M215 599L215 600L220 600L215 599z"/>
<path style="fill:#677c9f; stroke:none;" d="M264 599L264 600L269 600L264 599M226 600L226 601L231 601L226 600z"/>
<path style="fill:#a3afc2; stroke:none;" d="M231 600L231 601L254 601L231 600z"/>
<path style="fill:#677c9f; stroke:none;" d="M254 600L254 601L258 601L254 600z"/>
<path style="fill:#9ca8be; stroke:none;" d="M184 698L184 699L193 699L184 698z"/>
<path style="fill:#587097; stroke:none;" d="M193.667 698.333L194.333 698.667L193.667 698.333z"/>
<path style="fill:#9ca8be; stroke:none;" d="M249 698L249 699L270 699L249 698M290 700L308 699C303.802 697.239 293.154 696.391 290 700M618 700L636 700C633.029 696.601 620.971 696.601 618 700M661 700L678 700C675.078 696.656 663.922 696.656 661 700z"/>
<path style="fill:#aab4c7; stroke:none;" d="M180 699L180 700L183 700L180 699z"/>
<path style="fill:#ffffff; stroke:none;" d="M212 748L208 740L206 740C193.395 755.552 167.32 742.261 170.482 723C172.925 708.119 190.449 698.546 201.786 711.054C207.851 717.744 206.168 724.88 206 733L198 733L196 714L183 714C185.054 721.441 180.646 729.62 177 736L184 736C186.038 730.458 191.206 730.091 193 736C197.492 736 207.631 737.906 211.258 734.972C214.42 732.414 213.006 724.583 213 721C212.97 702.089 195.64 695.342 179 700.305C160.563 705.803 157.264 737.163 172.04 748.211C184.672 757.655 198.783 750.347 212 748z"/>
<path style="fill:#7d8eab; stroke:none;" d="M197.667 699.333L198.333 699.667L197.667 699.333z"/>
<path style="fill:#ffffff; stroke:none;" d="M249 699L249 700C263.889 710.576 277.993 732.75 271 751L287 751C278.526 733.349 293.299 710.581 308 700L308 699L291 699L291 700C293.486 705.863 283.17 714.359 281 720L279 720L267 701L270 700L249 699M619 699L619 700C628.773 709.571 617.182 731.196 624.089 742.985C631.368 755.407 666.1 754.955 672.825 741.996C679.533 729.069 671.37 712.286 677 699L662 699L662 700C668.309 706.178 667.49 734.751 659.892 740.11C652.325 745.447 636.243 744.214 633.434 733.999C631.932 728.539 633 721.63 633 716C633 710.042 632.638 704.574 635 699L619 699z"/>
<path style="fill:#aab4c7; stroke:none;" d="M249.667 700.333L250.333 700.667L249.667 700.333z"/>
<path style="fill:#6b80a1; stroke:none;" d="M268.667 700.333L269.333 700.667L268.667 700.333z"/>
<path style="fill:#aab4c7; stroke:none;" d="M291.667 700.333L292.333 700.667L291.667 700.333z"/>
<path style="fill:#6b80a1; stroke:none;" d="M306.667 700.333L307.333 700.667L306.667 700.333z"/>
<path style="fill:#b8c0cf; stroke:none;" d="M619.667 700.333L620.333 700.667L619.667 700.333M662.667 700.333L663.333 700.667L662.667 700.333M267.333 701.667L267.667 702.333L267.333 701.667z"/>
<path style="fill:#9ca8be; stroke:none;" d="M621 701L621 735L622 735L621 701M664 701L664 734L665 734L664 701z"/>
<path style="fill:#8d9bb5; stroke:none;" d="M171 704L172 705L171 704M170 705L171 706L170 705z"/>
<path style="fill:#7d8eab; stroke:none;" d="M184 705L184 706L187 706L184 705z"/>
<path style="fill:#8d9bb5; stroke:none;" d="M192 705L192 706L195 706L192 705z"/>
<path style="fill:#7d8eab; stroke:none;" d="M255 705L256 706L255 705z"/>
<path style="fill:#ffffff; stroke:none;" d="M540 705C529.662 709.975 513.345 707 502 707C504.326 719.528 505.582 739.043 501 751L542 752L542 742L512 744L512 731L532 733L532 723L512 725L512 714L541 716L540 705z"/>
<path style="fill:#9ca8be; stroke:none;" d="M541 705L541 716L542 716L541 705z"/>
<path style="fill:#8d9bb5; stroke:none;" d="M169 706L170 707L169 706z"/>
<path style="fill:#9ca8be; stroke:none;" d="M334 706L334 707L345 707L334 706M457 706L457 707L469 707L457 706M329.667 707.333L330.333 707.667L329.667 707.333z"/>
<path style="fill:#ffffff; stroke:none;" d="M331 707.468C315.578 710.377 306.884 730.096 317.394 742.957C324.37 751.493 337.903 752.286 348 750.381C364.124 747.339 372.318 726.905 360.671 714.105C353.822 706.579 340.446 705.685 331 707.468z"/>
<path style="fill:#9ca8be; stroke:none;" d="M347 707L347 708L350 708L347 707z"/>
<path style="fill:#aab4c7; stroke:none;" d="M379.333 707.667L379.667 708.333L379.333 707.667z"/>
<path style="fill:#ffffff; stroke:none;" d="M380 707C382.326 719.528 383.582 739.043 379 751L391 751L389 719C397.854 726.659 413.225 739.897 417 751L429 751C425.089 738.467 425.089 719.533 429 707L418 707L420 737C411.865 730.441 396.063 717.052 393 707L380 707z"/>
<path style="fill:#c5cbd8; stroke:none;" d="M393 707L393 711L394 711L393 707z"/>
<path style="fill:#aab4c7; stroke:none;" d="M417.333 707.667L417.667 708.333L417.333 707.667z"/>
<path style="fill:#8d9bb5; stroke:none;" d="M429.333 707.667L429.667 708.333L429.333 707.667z"/>
<path style="fill:#9ca8be; stroke:none;" d="M453.667 707.333L454.333 707.667L453.667 707.333z"/>
<path style="fill:#ffffff; stroke:none;" d="M448 736L445 736L442 747C453.736 748.582 465.054 753.924 476.999 749.336C484.098 746.61 488.729 735.874 482.566 729.72C477.251 724.413 454.87 726.775 453.77 719.036C453.252 715.39 458.403 714.246 461 714.055C467.921 713.545 474.633 715.474 479 721L481 721L485 711C473.614 710.456 462.75 703.332 451.001 708.653C443.22 712.177 440.008 722.571 447.133 728.567C452.188 732.821 473.974 730.948 475.079 738.181C475.663 742.007 469.734 743.67 467 744.141C460.012 745.347 451.191 742.488 448 736z"/>
<path style="fill:#8d9bb5; stroke:none;" d="M471.667 707.333L472.333 707.667L471.667 707.333z"/>
<path style="fill:#b8c0cf; stroke:none;" d="M501.333 707.667L501.667 708.333L501.333 707.667z"/>
<path style="fill:#ffffff; stroke:none;" d="M557 707L560 709C560 722.389 562.736 739.248 557 751L572 751C566.582 739.714 566.582 718.286 572 707L557 707z"/>
<path style="fill:#aab4c7; stroke:none;" d="M692.333 707.667L692.667 708.333L692.333 707.667z"/>
<path style="fill:#ffffff; stroke:none;" d="M693 707C695.326 719.528 696.582 739.043 692 751L704 751L702 719C710.854 726.659 726.225 739.897 730 751L742 751C738.089 738.467 738.089 719.533 742 707L731 707L733 737C724.866 730.441 709.063 717.052 706 707L693 707z"/>
<path style="fill:#c5cbd8; stroke:none;" d="M706 707L706 711L707 711L706 707z"/>
<path style="fill:#aab4c7; stroke:none;" d="M730.333 707.667L730.667 708.333L730.333 707.667z"/>
<path style="fill:#8d9bb5; stroke:none;" d="M742.333 707.667L742.667 708.333L742.333 707.667z"/>
<path style="fill:#ffffff; stroke:none;" d="M760 707L763 709C763 722.389 765.736 739.248 760 751L775 751C769.582 739.714 769.582 718.286 775 707L760 707z"/>
<path style="fill:#b8c0cf; stroke:none;" d="M786.333 707.667L786.667 708.333L786.333 707.667z"/>
<path style="fill:#ffffff; stroke:none;" d="M787 707C791.109 721.265 805.12 735.959 805 751L820 751L818 749L837 707L824 707L826 709L813 739L812 739L800 707L787 707z"/>
<path style="fill:#8d9bb5; stroke:none;" d="M800.333 707.667L800.667 708.333L800.333 707.667z"/>
<path style="fill:#587097; stroke:none;" d="M837.333 707.667L837.667 708.333L837.333 707.667z"/>
<path style="fill:#7d8eab; stroke:none;" d="M210 708L211 709L210 708z"/>
<path style="fill:#8d9bb5; stroke:none;" d="M288 708L289 709L288 708z"/>
<path style="fill:#587097; stroke:none;" d="M351.667 708.333L352.333 708.667L351.667 708.333z"/>
<path style="fill:#6b80a1; stroke:none;" d="M502 709L502 749L503 749C503 737.566 506.411 719.512 502 709M559 709L559 749L560 749C560 737.566 563.411 719.512 559 709M762 709L762 749L763 749C763 737.566 766.411 719.512 762 709M799 709L799 712L800 712L799 709z"/>
<path style="fill:#9ca8be; stroke:none;" d="M825.333 709.667L825.667 710.333L825.333 709.667z"/>
<path style="fill:#d1d6e0; stroke:none;" d="M419 710L418 737C422.23 733.304 421.118 715.047 419 710M427 710L427 748L428 748C428 737.089 431.211 720.036 427 710z"/>
<path style="fill:#6b80a1; stroke:none;" d="M569 710L569 748L570 748C570 737.089 573.211 720.036 569 710z"/>
<path style="fill:#d1d6e0; stroke:none;" d="M732 710L731 737C735.229 733.304 734.118 715.046 732 710M740 710L740 748L741 748C741 737.089 744.211 720.036 740 710z"/>
<path style="fill:#6b80a1; stroke:none;" d="M772 710L772 748L773 748C773 737.089 776.211 720.036 772 710z"/>
<path style="fill:#7d8eab; stroke:none;" d="M297 711L298 712L297 711z"/>
<path style="fill:#aab4c7; stroke:none;" d="M482.667 711.333L483.333 711.667L482.667 711.333z"/>
<path style="fill:#b8c0cf; stroke:none;" d="M485.333 711.667L485.667 712.333L485.333 711.667z"/>
<path style="fill:#8d9bb5; stroke:none;" d="M174 712L175 713L174 712z"/>
<path style="fill:#b8c0cf; stroke:none;" d="M824.333 712.667L824.667 713.333L824.333 712.667z"/>
<path style="fill:#6b80a1; stroke:none;" d="M183 713L183 714L196 714L183 713z"/>
<path style="fill:#9ca8be; stroke:none;" d="M334 714L334 715L337 715L334 714z"/>
<path style="fill:#003876; stroke:none;" d="M337 714.479C315.712 717.822 321.174 746.523 342 743.695C363.443 740.783 357.633 711.239 337 714.479z"/>
<path style="fill:#9ca8be; stroke:none;" d="M342 714L342 715L345 715L342 714M456.667 714.333L457.333 714.667L456.667 714.333z"/>
<path style="fill:#587097; stroke:none;" d="M458.667 714.333L459.333 714.667L458.667 714.333z"/>
<path style="fill:#6b80a1; stroke:none;" d="M466.667 714.333L467.333 714.667L466.667 714.333z"/>
<path style="fill:#b8c0cf; stroke:none;" d="M468.667 714.333L469.333 714.667L468.667 714.333z"/>
<path style="fill:#9ca8be; stroke:none;" d="M512 714L512 715L538 715L512 714z"/>
<path style="fill:#7d8eab; stroke:none;" d="M332 715L333 716L332 715z"/>
<path style="fill:#6b80a1; stroke:none;" d="M512 715L512 724L513 724L512 715M539 715L542 717L542 716L539 715M205.333 716.667L205.667 717.333L205.333 716.667z"/>
<path style="fill:#d1d6e0; stroke:none;" d="M213 716L213 727L214 727L213 716z"/>
<path style="fill:#8d9bb5; stroke:none;" d="M316 716L317 717L316 716M362 716L363 717L362 716M453 716L454 717L453 716z"/>
<path style="fill:#d1d6e0; stroke:none;" d="M163 718L163 723L164 723L163 718z"/>
<path style="fill:#7d8eab; stroke:none;" d="M171.333 718.667L171.667 719.333L171.333 718.667M278 718L279 719L278 718z"/>
<path style="fill:#8d9bb5; stroke:none;" d="M292 718L293 719L292 718z"/>
<path style="fill:#7d8eab; stroke:none;" d="M327 718L328 719L327 718M351 718L352 719L351 718z"/>
<path style="fill:#8d9bb5; stroke:none;" d="M401 718L402 719L401 718z"/>
<path style="fill:#9ca8be; stroke:none;" d="M452.333 718.667L452.667 719.333L452.333 718.667z"/>
<path style="fill:#8d9bb5; stroke:none;" d="M482 718L483 719L482 718M714 718L715 719L714 718M831 718L832 719L831 718z"/>
<path style="fill:#003876; stroke:none;" d="M188 719L186 728L191 728L188 719z"/>
<path style="fill:#9ca8be; stroke:none;" d="M194.333 719.667L194.667 720.333L194.333 719.667z"/>
<path style="fill:#8d9bb5; stroke:none;" d="M280 719L281 720L280 719z"/>
<path style="fill:#9ca8be; stroke:none;" d="M389 719L389 748L390 748L391 719L389 719z"/>
<path style="fill:#8d9bb5; stroke:none;" d="M402 719L403 720L402 719z"/>
<path style="fill:#9ca8be; stroke:none;" d="M702 719L702 748L703 748L704 719L702 719z"/>
<path style="fill:#8d9bb5; stroke:none;" d="M715 719L716 720L715 719z"/>
<path style="fill:#7d8eab; stroke:none;" d="M792 719L793 720L792 719z"/>
<path style="fill:#8d9bb5; stroke:none;" d="M189.333 720.667L189.667 721.333L189.333 720.667z"/>
<path style="fill:#d1d6e0; stroke:none;" d="M206 720L206 727L207 727L206 720z"/>
<path style="fill:#8d9bb5; stroke:none;" d="M325 720L326 721L325 720M353 720L354 721L353 720M403 720L404 721L403 720z"/>
<path style="fill:#7d8eab; stroke:none;" d="M481 720L482 721L481 720z"/>
<path style="fill:#8d9bb5; stroke:none;" d="M716 720L717 721L716 720M404 721L405 722L404 721M717 721L718 722L717 721M793 721L794 722L793 721z"/>
<path style="fill:#9ca8be; stroke:none;" d="M170 722L170 729L171 729L170 722z"/>
<path style="fill:#587097; stroke:none;" d="M187.333 722.667L187.667 723.333L187.333 722.667z"/>
<path style="fill:#d1d6e0; stroke:none;" d="M313 722L313 726L314 726L313 722M365 722L365 726L366 726L365 722z"/>
<path style="fill:#8d9bb5; stroke:none;" d="M455.667 722.333L456.333 722.667L455.667 722.333z"/>
<path style="fill:#587097; stroke:none;" d="M531.667 722.333L532.333 722.667L531.667 722.333z"/>
<path style="fill:#7d8eab; stroke:none;" d="M443.333 723.667L443.667 724.333L443.333 723.667z"/>
<path style="fill:#9ca8be; stroke:none;" d="M459 723L459 724L463 724L459 723z"/>
<path style="fill:#d1d6e0; stroke:none;" d="M532 723L532 733L533 733L532 723z"/>
<path style="fill:#587097; stroke:none;" d="M190.333 724.667L190.667 725.333L190.333 724.667z"/>
<path style="fill:#9ca8be; stroke:none;" d="M465 724L465 725L469 725L465 724z"/>
<path style="fill:#d1d6e0; stroke:none;" d="M512 724L512 725L529 725L512 724z"/>
<path style="fill:#8d9bb5; stroke:none;" d="M186.333 725.667L186.667 726.333L186.333 725.667z"/>
<path style="fill:#7d8eab; stroke:none;" d="M473.667 725.333L474.333 725.667L473.667 725.333z"/>
<path style="fill:#aab4c7; stroke:none;" d="M196.333 726.667L196.667 727.333L196.333 726.667z"/>
<path style="fill:#8d9bb5; stroke:none;" d="M476.667 726.333L477.333 726.667L476.667 726.333z"/>
<path style="fill:#6b80a1; stroke:none;" d="M213 727L213 732L214 732L213 727z"/>
<path style="fill:#9ca8be; stroke:none;" d="M322 727L322 731L323 731L322 727M356 727L356 731L357 731L356 727z"/>
<path style="fill:#7d8eab; stroke:none;" d="M285 728L286 729L285 728z"/>
<path style="fill:#9ca8be; stroke:none;" d="M284 729L284 748L285 748L284 729z"/>
<path style="fill:#8d9bb5; stroke:none;" d="M399 729L400 730L399 729M482 729L483 730L482 729M712 729L713 730L712 729M826 729L827 730L826 729M400 730L401 731L400 730M713 730L714 731L713 730z"/>
<path style="fill:#9ca8be; stroke:none;" d="M185 731L185 732L192 732L185 731z"/>
<path style="fill:#aab4c7; stroke:none;" d="M205.333 731.667L205.667 732.333L205.333 731.667z"/>
<path style="fill:#8d9bb5; stroke:none;" d="M401 731L402 732L401 731z"/>
<path style="fill:#aab4c7; stroke:none;" d="M453.667 731.333L454.333 731.667L453.667 731.333z"/>
<path style="fill:#d1d6e0; stroke:none;" d="M512 731L512 732L529 732L512 731z"/>
<path style="fill:#8d9bb5; stroke:none;" d="M714 731L715 732L714 731z"/>
<path style="fill:#7d8eab; stroke:none;" d="M163.333 732.667L163.667 733.333L163.333 732.667z"/>
<path style="fill:#9ca8be; stroke:none;" d="M171 732L171 735L172 735L171 732z"/>
<path style="fill:#6b80a1; stroke:none;" d="M192.333 732.667L192.667 733.333L192.333 732.667M198 732L198 733L205 733L198 732z"/>
<path style="fill:#b8c0cf; stroke:none;" d="M313 732L313 735L314 735L313 732M365 732L365 735L366 735L365 732z"/>
<path style="fill:#8d9bb5; stroke:none;" d="M457 732L457 733L460 733L457 732z"/>
<path style="fill:#6b80a1; stroke:none;" d="M512 732L512 743L513 743L512 732z"/>
<path style="fill:#587097; stroke:none;" d="M184.333 733.667L184.667 734.333L184.333 733.667z"/>
<path style="fill:#6b80a1; stroke:none;" d="M464.667 733.333L465.333 733.667L464.667 733.333z"/>
<path style="fill:#aab4c7; stroke:none;" d="M466.667 733.333L467.333 733.667L466.667 733.333z"/>
<path style="fill:#d1d6e0; stroke:none;" d="M485 733L485 739L486 739L485 733z"/>
<path style="fill:#587097; stroke:none;" d="M531.667 733.333L532.333 733.667L531.667 733.333z"/>
<path style="fill:#9ca8be; stroke:none;" d="M212 734L193 736L193 737C196.424 737 213.784 738.732 212 734M633.333 734.667L633.667 735.333L633.333 734.667z"/>
<path style="fill:#8d9bb5; stroke:none;" d="M799 734L800 735L799 734M417 735L418 736L417 735M446.667 735.333L447.333 735.667L446.667 735.333z"/>
<path style="fill:#b8c0cf; stroke:none;" d="M674 735L674 739L675 739L674 735z"/>
<path style="fill:#8d9bb5; stroke:none;" d="M730 735L731 736L730 735z"/>
<path style="fill:#7d8eab; stroke:none;" d="M164.333 736.667L164.667 737.333L164.333 736.667z"/>
<path style="fill:#9ca8be; stroke:none;" d="M177 736L177 737L184 737L177 736z"/>
<path style="fill:#8d9bb5; stroke:none;" d="M475 736L476 737L475 736M800 736L801 737L800 736z"/>
<path style="fill:#d1d6e0; stroke:none;" d="M852 737L852 738L858 738L852 737z"/>
<path style="fill:#8d9bb5; stroke:none;" d="M662 738L663 739L662 738z"/>
<path style="fill:#7d8eab; stroke:none;" d="M822 738L823 739L822 738z"/>
<path style="fill:#ffffff; stroke:none;" d="M851.148 739.028C843.639 743.458 851.55 754.279 858.852 749.972C866.485 745.47 858.504 734.688 851.148 739.028z"/>
<path style="fill:#7d8eab; stroke:none;" d="M174 739L175 740L174 739z"/>
<path style="fill:#6b80a1; stroke:none;" d="M206.667 739.333L207.333 739.667L206.667 739.333z"/>
<path style="fill:#8d9bb5; stroke:none;" d="M485.333 739.667L485.667 740.333L485.333 739.667z"/>
<path style="fill:#7d8eab; stroke:none;" d="M661 739L662 740L661 739M860 739L861 740L860 739M450 740L451 741L450 740z"/>
<path style="fill:#8d9bb5; stroke:none;" d="M475 740L476 741L475 740M637 740L638 741L637 740M452 741L453 742L452 741z"/>
<path style="fill:#7d8eab; stroke:none;" d="M474 741L475 742L474 741z"/>
<path style="fill:#9ca8be; stroke:none;" d="M540 743C543.441 743 542 749.121 542 752L543 752L543 741L540 743z"/>
<path style="fill:#587097; stroke:none;" d="M639.667 741.333L640.333 741.667L639.667 741.333z"/>
<path style="fill:#b8c0cf; stroke:none;" d="M657.667 741.333L658.333 741.667L657.667 741.333z"/>
<path style="fill:#7d8eab; stroke:none;" d="M454.667 742.333L455.333 742.667L454.667 742.333z"/>
<path style="fill:#aab4c7; stroke:none;" d="M642 742L642 743L645 743L642 742z"/>
<path style="fill:#6b80a1; stroke:none;" d="M645 742L645 743L654 743L645 742z"/>
<path style="fill:#8d9bb5; stroke:none;" d="M167 743L168 744L167 743z"/>
<path style="fill:#9ca8be; stroke:none;" d="M333 743L333 744L336 744L333 743M343 743L343 744L346 744L343 743z"/>
<path style="fill:#7d8eab; stroke:none;" d="M458.667 743.333L459.333 743.667L458.667 743.333z"/>
<path style="fill:#aab4c7; stroke:none;" d="M469.667 743.333L470.333 743.667L469.667 743.333z"/>
<path style="fill:#9ca8be; stroke:none;" d="M512 743L512 744L539 744L512 743z"/>
<path style="fill:#6b80a1; stroke:none;" d="M862 743L862 746L863 746L862 743z"/>
<path style="fill:#8d9bb5; stroke:none;" d="M180 744L181 745L180 744z"/>
<path style="fill:#d1d6e0; stroke:none;" d="M337 744L337 745L342 745L337 744z"/>
<path style="fill:#7d8eab; stroke:none;" d="M413 744L414 745L413 744z"/>
<path style="fill:#d1d6e0; stroke:none;" d="M462 744L462 745L466 745L462 744z"/>
<path style="fill:#8d9bb5; stroke:none;" d="M671 744L672 745L671 744z"/>
<path style="fill:#7d8eab; stroke:none;" d="M726 744L727 745L726 744z"/>
<path style="fill:#6b80a1; stroke:none;" d="M182.667 745.333L183.333 745.667L182.667 745.333z"/>
<path style="fill:#8d9bb5; stroke:none;" d="M196 745L196 746L199 746L196 745M414 745L415 746L414 745M670 745L671 746L670 745M727 745L728 746L727 745z"/>
<path style="fill:#9ca8be; stroke:none;" d="M187 746L187 747L193 747L187 746z"/>
<path style="fill:#8d9bb5; stroke:none;" d="M415 746L416 747L415 746M669 746L670 747L669 746M728 746L729 747L728 746z"/>
<path style="fill:#7d8eab; stroke:none;" d="M480 747L481 748L480 747z"/>
<path style="fill:#6b80a1; stroke:none;" d="M805.333 747.667L805.667 748.333L805.333 747.667z"/>
<path style="fill:#8d9bb5; stroke:none;" d="M172 748L173 749L172 748z"/>
<path style="fill:#587097; stroke:none;" d="M210.667 748.333L211.333 748.667L210.667 748.333z"/>
<path style="fill:#8d9bb5; stroke:none;" d="M272 748L273 749L272 748z"/>
<path style="fill:#b8c0cf; stroke:none;" d="M448.667 748.333L449.333 748.667L448.667 748.333z"/>
<path style="fill:#8d9bb5; stroke:none;" d="M666 748L667 749L666 748z"/>
<path style="fill:#9ca8be; stroke:none;" d="M391.333 749.667L391.667 750.333L391.333 749.667M416.333 749.667L416.667 750.333L416.333 749.667M429.333 749.667L429.667 750.333L429.333 749.667M451.667 749.333L452.333 749.667L451.667 749.333M704.333 749.667L704.667 750.333L704.333 749.667M729.333 749.667L729.667 750.333L729.333 749.667M742.333 749.667L742.667 750.333L742.333 749.667M804.333 749.667L804.667 750.333L804.333 749.667M330.667 750.333L331.333 750.667L330.667 750.333z"/>
<path style="fill:#7d8eab; stroke:none;" d="M347.667 750.333L348.333 750.667L347.667 750.333z"/>
<path style="fill:#9ca8be; stroke:none;" d="M455.667 750.333L456.333 750.667L455.667 750.333z"/>
<path style="fill:#8d9bb5; stroke:none;" d="M472.667 750.333L473.333 750.667L472.667 750.333z"/>
<path style="fill:#d1d6e0; stroke:none;" d="M635 750L635 751L640 751L635 750z"/>
<path style="fill:#7d8eab; stroke:none;" d="M659.667 750.333L660.333 750.667L659.667 750.333z"/>
<path style="fill:#6b80a1; stroke:none;" d="M200.667 751.333L201.333 751.667L200.667 751.333M336 751L336 752L343 752L336 751M461 751L461 752L468 752L461 751M643 751L643 752L653 752L643 751M854 751L854 752L857 752L854 751z"/>
<path style="fill:#d1d6e0; stroke:none;" d="M181 752L181 753L186 753L181 752z"/>
<path style="fill:#6b80a1; stroke:none;" d="M196.667 752.333L197.333 752.667L196.667 752.333z"/>
</svg>
